{"title":"Rise.of.the.Planet.of.the.Apes.2011.720p.BRRip.x264.Feel-Free","uid":6802995,"size":2686574356,"categoryP":"video","categoryS":"hd___movies","magnet":"?xt=urn:btih:bea7ec2551a29e16602d98eeaf788df821c66d6e&amp;dn=Rise.of.the.Planet.of.the.Apes.2011.720p.BRRip.x264.Feel-Free&amp;tr=udp%3A%2F%2Ftracker.openbittorrent.com%3A80&amp;tr=udp%3A%2F%2Fopen.demonii.com%3A1337&amp;tr=udp%3A%2F%2Ftracker.coppersurfer.tk%3A6969&amp;tr=udp%3A%2F%2Fexodus.desync.com%3A6969","seeders":1,"leechers":0,"uploader":"Test_Verify","files":14,"time":1320757472,"description":"Genre...........: Action | Drama | Sci-Fi\nLanguage........: English\nIMDB............: &lt;a href=&quot; http://www.imdb.com/title/tt1318514/&quot; rel=&quot;nofollow&quot; target=&quot;_NEW&quot;&gt; http://www.imdb.com/title/tt1318514/&lt;/a&gt;\nSource..........: BluRay.1080p.DTS.x264.-CHD Thanks!\nSubtitles.......: Romana/English\n\nFormat : MPEG-4\nFormat profile : Base Media\nCodec ID : isom\nFile size : 2.50 GiB\nDuration : 1h 44mn\nOverall bit rate : 3 404 Kbps\n\nVideo\nID : 1\nFormat : AVC\nFormat/Info : Advanced Video Codec\nFormat profile : &lt;a class=&quot;__cf_email__&quot; href=&quot;/cdn-cgi/l/email-protection&quot; data-cfemail=&quot;7139181619313d445f40&quot;&gt;[email&amp;#160;protected]&lt;/a&gt;&lt;script cf-hash='f9e31' type=&quot;text/javascript&quot;&gt;\n/* &lt;![CDATA[ */!function(){try{var t=&quot;currentScript&quot;in document?document.currentScript:function(){for(var t=document.getElementsByTagName(&quot;script&quot;),e=t.length;e--;)if(t[e].getAttribute(&quot;cf-hash&quot;))return t[e]}();if(t&amp;&amp;t.previousSibling){var e,r,n,i,c=t.previousSibling,a=c.getAttribute(&quot;data-cfemail&quot;);if(a){for(e=&quot;&quot;,r=parseInt(a.substr(0,2),16),n=2;a.length-n;n+=2)i=parseInt(a.substr(n,2),16)^r,e+=String.fromCharCode(i);e=document.createTextNode(e),c.parentNode.replaceChild(e,c)}}}catch(u){}}();/* ]]&gt; */&lt;/script&gt;\nFormat settings, CABAC : Yes\nFormat settings, ReFrames : 3 frames\nFormat settings, GOP : N=1\nCodec ID : avc1\nCodec ID/Info : Advanced Video Coding\nDuration : 1h 44mn\nBit rate mode : Variable\nBit rate : 3 000 Kbps\nMaximum bit rate : 24.3 Mbps\nWidth : 1 280 pixels\nHeight : 544 pixels\nDisplay aspect ratio : 2.35:1\nFrame rate mode : Constant\nFrame rate : 23.976 fps\nColor space : YUV\nChroma subsampling : 4:2:0\nBit depth : 8 bits\nScan type : Progressive\nBits/(Pixel*Frame) : 0.180\nStream size : 2.17 GiB (87%)\nWriting library : x264\n\nAudio\nID : 2\nFormat : AAC\nFormat/Info : Advanced Audio Codec\nFormat version : Version 4\nFormat profile : LC\nFormat settings, SBR : No\nCodec ID : 40\nDuration : 1h 44mn\nBit rate mode : Variable\nBit rate : 444 Kbps\nMaximum bit rate : 538 Kbps\nChannel(s) : 6 channels\nChannel positions : Front: L C R, Side: L R, LFE\nSampling rate : 48.0 KHz\nStream size : 333 MiB (13%)\n\n\nPlot:\nDuring experiments to find a cure for Alzheimer's disease, a genetically-enhanced chimpanzee uses its greater intelligence to lead other apes to freedom\n\n\n &lt;a href=&quot;\nhttp://img684.imageshack.us/img684/3565/vlcsnap00001je.png&quot; rel=&quot;nofollow&quot; target=&quot;_NEW&quot;&gt;\nhttp://img684.imageshack.us/img684/3565/vlcsnap00001je.png&lt;/a&gt;\n &lt;a href=&quot;\nhttp://img845.imageshack.us/img845/778/vlcsnap00003rv.png&quot; rel=&quot;nofollow&quot; target=&quot;_NEW&quot;&gt;\nhttp://img845.imageshack.us/img845/778/vlcsnap00003rv.png&lt;/a&gt;\n &lt;a href=&quot;\nhttp://img684.imageshack.us/img684/5483/vlcsnap00004fb.png&quot; rel=&quot;nofollow&quot; target=&quot;_NEW&quot;&gt;\nhttp://img684.imageshack.us/img684/5483/vlcsnap00004fb.png&lt;/a&gt;\n &lt;a href=&quot;\nhttp://img577.imageshack.us/img577/1110/vlcsnap00006bp.png&quot; rel=&quot;nofollow&quot; target=&quot;_NEW&quot;&gt;\nhttp://img577.imageshack.us/img577/1110/vlcsnap00006bp.png&lt;/a&gt;\n &lt;a href=&quot;\nhttp://img28.imageshack.us/img28/5113/vlcsnap00007kz.png&quot; rel=&quot;nofollow&quot; target=&quot;_NEW&quot;&gt;\nhttp://img28.imageshack.us/img28/5113/vlcsnap00007kz.png&lt;/a&gt;","torrent":{"xt":"urn:btih:bea7ec2551a29e16602d98eeaf788df821c66d6e","amp;dn":"Rise.of.the.Planet.of.the.Apes.2011.720p.BRRip.x264.Feel-Free","amp;tr":["udp%3A%2F%2Ftracker.openbittorrent.com%3A80","udp%3A%2F%2Fopen.demonii.com%3A1337","udp%3A%2F%2Ftracker.coppersurfer.tk%3A6969","udp%3A%2F%2Fexodus.desync.com%3A6969"],"infoHash":"bea7ec2551a29e16602d98eeaf788df821c66d6e","infoHashBuffer":{"type":"Buffer","data":[190,167,236,37,81,162,158,22,96,45,152,238,175,120,141,248,33,198,109,110]},"announce":[],"urlList":[]}}